<?xml version="1.0" encoding="iso-8859-1"?>
<!-- Uploaded to: SVG Repo, www.svgrepo.com, Generator: SVG Repo Mixer Tools -->
<svg fill="#000000" height="800px" width="800px" version="1.1" id="Layer_1" xmlns="http://www.w3.org/2000/svg" xmlns:xlink="http://www.w3.org/1999/xlink" 
	 viewBox="0 0 512 512" xml:space="preserve">
<g>
	<g>
		<path d="M506.338,127.939L260.794,1.164c-3.008-1.552-6.58-1.552-9.588,0L5.662,127.939c-4.283,2.212-6.498,7.066-5.359,11.751
			c1.138,4.684,5.333,7.983,10.153,7.983h491.088c4.821,0,9.015-3.298,10.153-7.983C512.836,135.005,510.621,130.15,506.338,127.939
			z M53.47,126.775l166.499-85.963l-64.94,85.963H53.47z M245.551,126.774h-64.333l64.333-85.16V126.774z M266.449,126.774v-85.16
			l64.333,85.16H266.449z M356.972,126.774l-64.94-85.963l166.499,85.963H356.972z"/>
	</g>
</g>
<g>
	<g>
		<path d="M445.107,268.531h-20.223H266.449v-68.453c0-5.771-4.678-10.449-10.449-10.449c-5.771,0-10.449,4.678-10.449,10.449
			v68.453h-31.258H66.865c-5.771,0-10.449,4.678-10.449,10.449v33.436c0,5.771,4.678,10.449,10.449,10.449h176.536l2.505,2.505
			c-0.232,0.865-0.367,1.769-0.367,2.706v116.451c-35.468,3.073-68.168,21.638-88.966,50.983c-2.259,3.188-2.552,7.37-0.758,10.841
			c1.794,3.471,5.375,5.651,9.282,5.651h181.807c3.907,0,7.488-2.18,9.282-5.651c1.794-3.471,1.503-7.653-0.758-10.841
			c-20.802-29.352-53.515-47.92-88.992-50.985v-98.625l45.764,45.764c1.959,1.959,4.617,3.06,7.388,3.06
			c2.771,0,5.429-1.101,7.388-3.06l68.875-68.875c0.396,0.046,0.797,0.075,1.206,0.075h48.05c5.771,0,10.449-4.678,10.449-10.449
			v-33.436C455.556,273.209,450.878,268.531,445.107,268.531z M77.314,301.967v-12.538h132.651l12.538,12.538H77.314z
			 M323.737,491.102H188.263c18.389-16.631,42.504-26.138,67.737-26.138S305.348,474.472,323.737,491.102z M319.588,369.499
			l-16.976-16.976l14.123-14.123c4.08-4.08,4.08-10.696,0-14.778c-4.08-4.079-10.696-4.079-14.778,0l-14.123,14.123l-48.317-48.317
			h160.14L319.588,369.499z M434.659,301.967h-17.985l12.538-12.538h5.447V301.967z"/>
	</g>
</g>
<g>
	<g>
		<path d="M340.734,299.622c-4.08-4.08-10.696-4.08-14.778,0l-0.097,0.097c-4.08,4.08-4.08,10.696,0,14.778
			c2.041,2.041,4.714,3.06,7.388,3.06s5.349-1.02,7.388-3.06l0.097-0.097C344.815,310.318,344.815,303.702,340.734,299.622z"/>
	</g>
</g>
<g>
	<g>
		<path d="M256,159.346c-5.771,0-10.449,4.678-10.449,10.449v0.137c0,5.771,4.678,10.449,10.449,10.449
			c5.771,0,10.449-4.678,10.449-10.449v-0.137C266.449,164.024,261.771,159.346,256,159.346z"/>
	</g>
</g>
</svg>