<svg id="visual" viewBox="0 0 900 600" width="900" height="600" xmlns="http://www.w3.org/2000/svg" xmlns:xlink="http://www.w3.org/1999/xlink" version="1.1"><g stroke-width="1" stroke-linejoin="bevel"><path d="M485 344.9L525 450.6L540 337.9Z" fill="#114568" stroke="#114568"></path><path d="M485 344.9L450 453.6L525 450.6Z" fill="#0c4160" stroke="#0c4160"></path><path d="M472 538.3L556 489.3L525 450.6Z" fill="#164970" stroke="#164970"></path><path d="M625 409.6L616 348.9L540 337.9Z" fill="#0e4364" stroke="#0e4364"></path><path d="M625 409.6L540 337.9L525 450.6Z" fill="#0a3d58" stroke="#0a3d58"></path><path d="M556 489.3L625 409.6L525 450.6Z" fill="#0a3d58" stroke="#0a3d58"></path><path d="M616 348.9L565 283.1L540 337.9Z" fill="#13476c" stroke="#13476c"></path><path d="M540 337.9L565 283.1L485 344.9Z" fill="#0a3d58" stroke="#0a3d58"></path><path d="M450 453.6L472 538.3L525 450.6Z" fill="#093549" stroke="#093549"></path><path d="M419 247.1L353 365.9L485 344.9Z" fill="#093b54" stroke="#093b54"></path><path d="M485 344.9L353 365.9L450 453.6Z" fill="#09374d" stroke="#09374d"></path><path d="M450 453.6L360 508.3L472 538.3Z" fill="#164970" stroke="#164970"></path><path d="M601 600L647 508.3L556 489.3Z" fill="#0c4160" stroke="#0c4160"></path><path d="M556 489.3L647 508.3L625 409.6Z" fill="#0a3d58" stroke="#0a3d58"></path><path d="M711 330.9L620 222.1L616 348.9Z" fill="#0a3d58" stroke="#0a3d58"></path><path d="M513 208.4L419 247.1L485 344.9Z" fill="#093951" stroke="#093951"></path><path d="M620 222.1L513 208.4L565 283.1Z" fill="#093951" stroke="#093951"></path><path d="M565 283.1L513 208.4L485 344.9Z" fill="#0e4364" stroke="#0e4364"></path><path d="M321 425.6L360 508.3L450 453.6Z" fill="#0e4364" stroke="#0e4364"></path><path d="M711 330.9L616 348.9L625 409.6Z" fill="#0e4364" stroke="#0e4364"></path><path d="M616 348.9L620 222.1L565 283.1Z" fill="#13476c" stroke="#13476c"></path><path d="M353 365.9L321 425.6L450 453.6Z" fill="#093b54" stroke="#093b54"></path><path d="M739 412.6L711 330.9L625 409.6Z" fill="#0e4364" stroke="#0e4364"></path><path d="M699 600L685 514.3L647 508.3Z" fill="#093951" stroke="#093951"></path><path d="M647 508.3L685 514.3L625 409.6Z" fill="#0c4160" stroke="#0c4160"></path><path d="M456 600L553 600L472 538.3Z" fill="#0b3f5c" stroke="#0b3f5c"></path><path d="M472 538.3L553 600L556 489.3Z" fill="#0a3d58" stroke="#0a3d58"></path><path d="M360 508.3L456 600L472 538.3Z" fill="#114568" stroke="#114568"></path><path d="M685 514.3L739 412.6L625 409.6Z" fill="#0a3d58" stroke="#0a3d58"></path><path d="M553 600L601 600L556 489.3Z" fill="#164970" stroke="#164970"></path><path d="M237 286.1L295 389.6L353 365.9Z" fill="#0a3d58" stroke="#0a3d58"></path><path d="M353 365.9L295 389.6L321 425.6Z" fill="#13476c" stroke="#13476c"></path><path d="M321 425.6L283 492.3L360 508.3Z" fill="#114568" stroke="#114568"></path><path d="M384 159.4L352 225.1L419 247.1Z" fill="#09374d" stroke="#09374d"></path><path d="M419 247.1L352 225.1L353 365.9Z" fill="#0b3f5c" stroke="#0b3f5c"></path><path d="M776 367.9L734 294.1L711 330.9Z" fill="#09374d" stroke="#09374d"></path><path d="M711 330.9L734 294.1L620 222.1Z" fill="#093951" stroke="#093951"></path><path d="M295 389.6L283 492.3L321 425.6Z" fill="#0c4160" stroke="#0c4160"></path><path d="M360 508.3L353 600L456 600Z" fill="#093951" stroke="#093951"></path><path d="M739 412.6L776 367.9L711 330.9Z" fill="#0c4160" stroke="#0c4160"></path><path d="M817 409.6L776 367.9L739 412.6Z" fill="#093549" stroke="#093549"></path><path d="M539 71.7L465 138.4L513 208.4Z" fill="#0e4364" stroke="#0e4364"></path><path d="M513 208.4L465 138.4L419 247.1Z" fill="#0a3d58" stroke="#0a3d58"></path><path d="M277 600L353 600L360 508.3Z" fill="#093b54" stroke="#093b54"></path><path d="M465 138.4L384 159.4L419 247.1Z" fill="#0b3f5c" stroke="#0b3f5c"></path><path d="M686 146.4L622 138.4L620 222.1Z" fill="#0a3d58" stroke="#0a3d58"></path><path d="M620 222.1L622 138.4L513 208.4Z" fill="#114568" stroke="#114568"></path><path d="M601 600L699 600L647 508.3Z" fill="#093951" stroke="#093951"></path><path d="M801 510.3L817 409.6L739 412.6Z" fill="#093951" stroke="#093951"></path><path d="M237 286.1L231 378.9L295 389.6Z" fill="#0c4160" stroke="#0c4160"></path><path d="M295 389.6L231 378.9L283 492.3Z" fill="#0e4364" stroke="#0e4364"></path><path d="M237 286.1L353 365.9L352 225.1Z" fill="#114568" stroke="#114568"></path><path d="M734 294.1L686 146.4L620 222.1Z" fill="#0a3d58" stroke="#0a3d58"></path><path d="M799 274.1L686 146.4L734 294.1Z" fill="#0e4364" stroke="#0e4364"></path><path d="M801 510.3L739 412.6L685 514.3Z" fill="#09374d" stroke="#09374d"></path><path d="M776 367.9L799 274.1L734 294.1Z" fill="#0b3f5c" stroke="#0b3f5c"></path><path d="M248 136.4L237 286.1L352 225.1Z" fill="#0e4364" stroke="#0e4364"></path><path d="M900 341.9L799 274.1L776 367.9Z" fill="#093549" stroke="#093549"></path><path d="M699 600L801 510.3L685 514.3Z" fill="#0b3f5c" stroke="#0b3f5c"></path><path d="M283 492.3L277 600L360 508.3Z" fill="#164970" stroke="#164970"></path><path d="M187 527.3L277 600L283 492.3Z" fill="#0e4364" stroke="#0e4364"></path><path d="M622 138.4L539 71.7L513 208.4Z" fill="#164970" stroke="#164970"></path><path d="M465 138.4L389 78.7L384 159.4Z" fill="#13476c" stroke="#13476c"></path><path d="M592 69.7L539 71.7L622 138.4Z" fill="#093951" stroke="#093951"></path><path d="M237 286.1L196 353.9L231 378.9Z" fill="#114568" stroke="#114568"></path><path d="M231 378.9L168 432.6L283 492.3Z" fill="#093951" stroke="#093951"></path><path d="M682 92.7L592 69.7L622 138.4Z" fill="#13476c" stroke="#13476c"></path><path d="M423 58.7L389 78.7L465 138.4Z" fill="#093549" stroke="#093549"></path><path d="M384 159.4L248 136.4L352 225.1Z" fill="#093b54" stroke="#093b54"></path><path d="M800 59.7L682 92.7L686 146.4Z" fill="#0e4364" stroke="#0e4364"></path><path d="M686 146.4L682 92.7L622 138.4Z" fill="#0c4160" stroke="#0c4160"></path><path d="M539 71.7L423 58.7L465 138.4Z" fill="#13476c" stroke="#13476c"></path><path d="M436 0L423 58.7L539 71.7Z" fill="#0a3d58" stroke="#0a3d58"></path><path d="M196 353.9L168 432.6L231 378.9Z" fill="#0e4364" stroke="#0e4364"></path><path d="M168 432.6L187 527.3L283 492.3Z" fill="#0c4160" stroke="#0c4160"></path><path d="M187 527.3L216 600L277 600Z" fill="#0e4364" stroke="#0e4364"></path><path d="M237 286.1L163 295.1L196 353.9Z" fill="#13476c" stroke="#13476c"></path><path d="M196 353.9L83 340.9L168 432.6Z" fill="#093549" stroke="#093549"></path><path d="M122 263.1L163 295.1L143 159.4Z" fill="#0a3d58" stroke="#0a3d58"></path><path d="M244 83.7L248 136.4L389 78.7Z" fill="#164970" stroke="#164970"></path><path d="M389 78.7L248 136.4L384 159.4Z" fill="#093951" stroke="#093951"></path><path d="M699 600L833 600L801 510.3Z" fill="#093549" stroke="#093549"></path><path d="M900 494.3L900 429.6L817 409.6Z" fill="#0c4160" stroke="#0c4160"></path><path d="M900 494.3L817 409.6L801 510.3Z" fill="#0c4160" stroke="#0c4160"></path><path d="M817 409.6L900 341.9L776 367.9Z" fill="#093951" stroke="#093951"></path><path d="M799 274.1L844 144.4L686 146.4Z" fill="#114568" stroke="#114568"></path><path d="M900 429.6L900 341.9L817 409.6Z" fill="#093b54" stroke="#093b54"></path><path d="M833 600L900 494.3L801 510.3Z" fill="#0b3f5c" stroke="#0b3f5c"></path><path d="M646 0L574 0L592 69.7Z" fill="#13476c" stroke="#13476c"></path><path d="M592 69.7L574 0L539 71.7Z" fill="#093b54" stroke="#093b54"></path><path d="M574 0L436 0L539 71.7Z" fill="#0c4160" stroke="#0c4160"></path><path d="M423 58.7L387 0L389 78.7Z" fill="#0e4364" stroke="#0e4364"></path><path d="M900 237.1L844 144.4L799 274.1Z" fill="#09374d" stroke="#09374d"></path><path d="M682 92.7L646 0L592 69.7Z" fill="#0c4160" stroke="#0c4160"></path><path d="M900 341.9L900 237.1L799 274.1Z" fill="#093b54" stroke="#093b54"></path><path d="M684 0L646 0L682 92.7Z" fill="#164970" stroke="#164970"></path><path d="M276 0L244 83.7L389 78.7Z" fill="#13476c" stroke="#13476c"></path><path d="M143 159.4L163 295.1L237 286.1Z" fill="#164970" stroke="#164970"></path><path d="M436 0L387 0L423 58.7Z" fill="#164970" stroke="#164970"></path><path d="M143 159.4L237 286.1L248 136.4Z" fill="#114568" stroke="#114568"></path><path d="M163 295.1L83 340.9L196 353.9Z" fill="#13476c" stroke="#13476c"></path><path d="M168 432.6L101 523.3L187 527.3Z" fill="#114568" stroke="#114568"></path><path d="M800 59.7L684 0L682 92.7Z" fill="#0c4160" stroke="#0c4160"></path><path d="M833 600L900 600L900 494.3Z" fill="#0e4364" stroke="#0e4364"></path><path d="M900 63.7L800 59.7L844 144.4Z" fill="#13476c" stroke="#13476c"></path><path d="M844 144.4L800 59.7L686 146.4Z" fill="#093549" stroke="#093549"></path><path d="M76 435.6L101 523.3L168 432.6Z" fill="#0a3d58" stroke="#0a3d58"></path><path d="M187 527.3L112 600L216 600Z" fill="#13476c" stroke="#13476c"></path><path d="M122 263.1L83 340.9L163 295.1Z" fill="#0b3f5c" stroke="#0b3f5c"></path><path d="M276 0L211 77.7L244 83.7Z" fill="#0b3f5c" stroke="#0b3f5c"></path><path d="M244 83.7L211 77.7L248 136.4Z" fill="#0a3d58" stroke="#0a3d58"></path><path d="M0 286.1L0 360.9L83 340.9Z" fill="#093951" stroke="#093951"></path><path d="M211 77.7L143 159.4L248 136.4Z" fill="#114568" stroke="#114568"></path><path d="M83 340.9L76 435.6L168 432.6Z" fill="#13476c" stroke="#13476c"></path><path d="M900 237.1L900 141.4L844 144.4Z" fill="#13476c" stroke="#13476c"></path><path d="M0 600L112 600L101 523.3Z" fill="#093549" stroke="#093549"></path><path d="M101 523.3L112 600L187 527.3Z" fill="#114568" stroke="#114568"></path><path d="M387 0L276 0L389 78.7Z" fill="#0c4160" stroke="#0c4160"></path><path d="M143 159.4L101 161.4L122 263.1Z" fill="#0b3f5c" stroke="#0b3f5c"></path><path d="M96 79.7L101 161.4L143 159.4Z" fill="#0c4160" stroke="#0c4160"></path><path d="M96 79.7L143 159.4L211 77.7Z" fill="#09374d" stroke="#09374d"></path><path d="M900 63.7L831 0L800 59.7Z" fill="#093951" stroke="#093951"></path><path d="M800 59.7L831 0L684 0Z" fill="#093b54" stroke="#093b54"></path><path d="M900 141.4L900 63.7L844 144.4Z" fill="#114568" stroke="#114568"></path><path d="M276 0L184 0L211 77.7Z" fill="#0c4160" stroke="#0c4160"></path><path d="M0 286.1L83 340.9L122 263.1Z" fill="#164970" stroke="#164970"></path><path d="M83 340.9L0 360.9L76 435.6Z" fill="#0c4160" stroke="#0c4160"></path><path d="M76 435.6L0 518.3L101 523.3Z" fill="#093549" stroke="#093549"></path><path d="M0 360.9L0 432.6L76 435.6Z" fill="#093b54" stroke="#093b54"></path><path d="M184 0L96 79.7L211 77.7Z" fill="#093b54" stroke="#093b54"></path><path d="M0 178.4L0 286.1L122 263.1Z" fill="#09374d" stroke="#09374d"></path><path d="M0 178.4L122 263.1L101 161.4Z" fill="#0a3d58" stroke="#0a3d58"></path><path d="M0 432.6L0 518.3L76 435.6Z" fill="#0b3f5c" stroke="#0b3f5c"></path><path d="M900 63.7L900 0L831 0Z" fill="#0a3d58" stroke="#0a3d58"></path><path d="M0 518.3L0 600L101 523.3Z" fill="#093b54" stroke="#093b54"></path><path d="M96 79.7L0 178.4L101 161.4Z" fill="#093b54" stroke="#093b54"></path><path d="M184 0L86 0L96 79.7Z" fill="#0c4160" stroke="#0c4160"></path><path d="M96 79.7L0 49.7L0 178.4Z" fill="#0c4160" stroke="#0c4160"></path><path d="M86 0L0 49.7L96 79.7Z" fill="#093b54" stroke="#093b54"></path><path d="M86 0L0 0L0 49.7Z" fill="#114568" stroke="#114568"></path></g></svg>